<svg width="105" height="36" viewBox="0 0 105 36" fill="none" xmlns="http://www.w3.org/2000/svg">
<path d="M0.558594 31V0.0625H8.73199C10.443 0.0625 11.797 0.44336 12.793 1.20508C13.801 1.9668 14.521 3.05078 14.955 4.45703C15.389 5.86328 15.605 7.53906 15.605 9.4844C15.605 11.3594 15.424 12.9941 15.061 14.3887C14.697 15.7715 14.047 16.8438 13.109 17.6055C12.184 18.3672 10.865 18.748 9.15399 18.748H6.64059V31H0.558594ZM6.64059 13.1934H6.9922C8.141 13.1934 8.84399 12.8711 9.10199 12.2266C9.35899 11.582 9.48799 10.6328 9.48799 9.3789C9.48799 8.20703 9.35899 7.30469 9.10199 6.67188C8.85499 6.02734 8.26399 5.70508 7.32619 5.70508H6.64059V13.1934ZM17.469 31V0.0625H23.867V31H17.469ZM31.197 31.2812C29.732 31.2812 28.613 30.9414 27.84 30.2617C27.078 29.582 26.557 28.6504 26.275 27.4668C25.994 26.2832 25.854 24.9414 25.854 23.4414C25.854 21.8359 26.012 20.5234 26.328 19.5039C26.645 18.4727 27.184 17.6289 27.945 16.9727C28.719 16.3164 29.779 15.7598 31.127 15.3027L35.029 13.9668V11.2598C35.029 9.8418 34.566 9.1328 33.641 9.1328C32.797 9.1328 32.375 9.707 32.375 10.8555V12.4375H26.258C26.246 12.3438 26.24 12.2266 26.24 12.0859C26.24 11.9336 26.24 11.7637 26.24 11.5762C26.24 8.95117 26.855 7.09375 28.086 6.00391C29.328 4.90234 31.291 4.35156 33.975 4.35156C35.381 4.35156 36.641 4.60352 37.754 5.10742C38.867 5.59961 39.746 6.33203 40.391 7.30469C41.047 8.27734 41.375 9.4785 41.375 10.9082V31H35.117V27.8711C34.812 28.9727 34.309 29.8164 33.605 30.4023C32.902 30.9883 32.1 31.2812 31.197 31.2812ZM33.676 26.3945C34.191 26.3945 34.543 26.1777 34.73 25.7441C34.918 25.3105 35.012 24.8418 35.012 24.3379V16.9902C34.145 17.3418 33.471 17.7871 32.99 18.3262C32.51 18.8535 32.27 19.6328 32.27 20.6641V24.0566C32.27 25.6152 32.738 26.3945 33.676 26.3945ZM43.291 35.3945V31.4043H46.314C46.771 31.4043 47 31.2461 47 30.9297C47 30.7656 46.982 30.5957 46.947 30.4199L42.816 4.63281H48.846L50.604 24.0391L52.678 4.63281H58.742L53.855 32.3711C53.68 33.3672 53.34 34.1172 52.836 34.6211C52.344 35.1367 51.529 35.3945 50.393 35.3945H43.291ZM67.777 31.2812C65.902 31.2812 64.408 30.9297 63.295 30.2266C62.182 29.5234 61.385 28.5098 60.904 27.1855C60.424 25.8613 60.184 24.2676 60.184 22.4043V11.8047C60.184 9.3555 60.887 7.50391 62.293 6.25C63.699 4.98438 65.633 4.35156 68.094 4.35156C73.156 4.35156 75.688 6.83594 75.688 11.8047V13.7207C75.688 16.041 75.664 17.5996 75.617 18.3965H66.477V23.4941C66.477 23.9629 66.506 24.4258 66.564 24.8828C66.623 25.3281 66.752 25.6973 66.951 25.9902C67.162 26.2832 67.496 26.4297 67.953 26.4297C68.609 26.4297 69.02 26.1484 69.184 25.5859C69.348 25.0117 69.43 24.2676 69.43 23.3535V20.8223H75.688V22.3164C75.688 24.2852 75.441 25.9375 74.949 27.2734C74.469 28.5977 73.648 29.5996 72.488 30.2793C71.34 30.9473 69.77 31.2812 67.777 31.2812ZM66.441 15.2676H69.43V11.7168C69.43 10.7676 69.312 10.0879 69.078 9.6777C68.844 9.2559 68.492 9.0449 68.023 9.0449C67.52 9.0449 67.127 9.2441 66.846 9.6426C66.576 10.041 66.441 10.7324 66.441 11.7168V15.2676ZM77.973 31V4.63281H84.371V7.56836C84.676 6.54883 85.215 5.75195 85.988 5.17773C86.762 4.60352 87.734 4.31641 88.906 4.31641V9.5723C88.391 9.5723 87.775 9.6309 87.061 9.748C86.346 9.8535 85.719 10.0059 85.18 10.2051C84.641 10.3926 84.371 10.6035 84.371 10.8379V31H77.973ZM97.678 31.2812C92.475 31.2812 89.873 28.6445 89.873 23.3711V21.2793H96.201V24.373C96.201 24.9707 96.318 25.4395 96.553 25.7793C96.787 26.1191 97.162 26.2891 97.678 26.2891C98.592 26.2891 99.049 25.6035 99.049 24.2324C99.049 23.084 98.809 22.2285 98.328 21.666C97.848 21.0918 97.262 20.541 96.57 20.0137L93.213 17.4297C92.158 16.6094 91.355 15.7422 90.805 14.8281C90.254 13.9141 89.979 12.6426 89.979 11.0137C89.979 9.502 90.336 8.25391 91.051 7.26953C91.777 6.28516 92.732 5.55273 93.916 5.07227C95.111 4.5918 96.4 4.35156 97.783 4.35156C102.893 4.35156 105.447 6.90039 105.447 11.998V12.4902H98.943V11.4883C98.943 10.9609 98.85 10.4512 98.662 9.959C98.486 9.4668 98.135 9.2207 97.607 9.2207C96.717 9.2207 96.271 9.6895 96.271 10.627C96.271 11.5762 96.646 12.3203 97.396 12.8594L101.299 15.707C102.518 16.5859 103.537 17.6289 104.357 18.8359C105.189 20.043 105.605 21.6484 105.605 23.6523C105.605 26.1367 104.896 28.0293 103.479 29.3301C102.072 30.6309 100.139 31.2812 97.678 31.2812Z" fill="#F2E52E"/>
</svg>
