<svg width="82" height="33" viewBox="0 0 82 33" fill="none" xmlns="http://www.w3.org/2000/svg">
<path d="M7.25195 32.2812C2.83398 32.2812 0.625 29.1172 0.625 22.7891V9.44727C0.625 3.66992 3.15625 0.78125 8.21875 0.78125C10.3047 0.78125 11.9043 1.20312 13.0176 2.04688C14.1309 2.87891 14.8984 4.09766 15.3203 5.70312C15.7422 7.30859 15.9531 9.26562 15.9531 11.5742H9.90625V8.83203C9.90625 8.16406 9.8125 7.60742 9.625 7.16211C9.44922 6.70508 9.07422 6.47656 8.5 6.47656C7.78516 6.47656 7.31055 6.7168 7.07617 7.19727C6.85352 7.67773 6.74219 8.20508 6.74219 8.7793V23.7734C6.74219 24.6055 6.84766 25.2852 7.05859 25.8125C7.28125 26.3281 7.70898 26.5859 8.3418 26.5859C8.99805 26.5859 9.43164 26.3281 9.64258 25.8125C9.86523 25.2852 9.97656 24.5938 9.97656 23.7383V19.3262H8.32422V13.9824H15.8828V32H13.4043L12.3496 29.3984C11.2715 31.3203 9.57227 32.2812 7.25195 32.2812ZM18.2383 32V5.63281H24.6367V8.56836C24.9414 7.54883 25.4805 6.75195 26.2539 6.17773C27.0273 5.60352 28 5.31641 29.1719 5.31641V10.5723C28.6562 10.5723 28.041 10.6309 27.3262 10.748C26.6113 10.8535 25.9844 11.0059 25.4453 11.2051C24.9062 11.3926 24.6367 11.6035 24.6367 11.8379V32H18.2383ZM35.5176 32.2812C34.0527 32.2812 32.9336 31.9414 32.1602 31.2617C31.3984 30.582 30.877 29.6504 30.5957 28.4668C30.3145 27.2832 30.1738 25.9414 30.1738 24.4414C30.1738 22.8359 30.332 21.5234 30.6484 20.5039C30.9648 19.4727 31.5039 18.6289 32.2656 17.9727C33.0391 17.3164 34.0996 16.7598 35.4473 16.3027L39.3496 14.9668V12.2598C39.3496 10.8418 38.8867 10.1328 37.9609 10.1328C37.1172 10.1328 36.6953 10.707 36.6953 11.8555V13.4375H30.5781C30.5664 13.3438 30.5605 13.2266 30.5605 13.0859C30.5605 12.9336 30.5605 12.7637 30.5605 12.5762C30.5605 9.95117 31.1758 8.09375 32.4062 7.00391C33.6484 5.90234 35.6113 5.35156 38.2949 5.35156C39.7012 5.35156 40.9609 5.60352 42.0742 6.10742C43.1875 6.59961 44.0664 7.33203 44.7109 8.30469C45.3672 9.27734 45.6953 10.4785 45.6953 11.9082V32H39.4375V28.8711C39.1328 29.9727 38.6289 30.8164 37.9258 31.4023C37.2227 31.9883 36.4199 32.2812 35.5176 32.2812ZM37.9961 27.3945C38.5117 27.3945 38.8633 27.1777 39.0508 26.7441C39.2383 26.3105 39.332 25.8418 39.332 25.3379V17.9902C38.4648 18.3418 37.791 18.7871 37.3105 19.3262C36.8301 19.8535 36.5898 20.6328 36.5898 21.6641V25.0566C36.5898 26.6152 37.0586 27.3945 37.9961 27.3945ZM48.1211 32V5.63281H54.4141V8.99023C54.6484 7.98242 55.082 7.12695 55.7148 6.42383C56.3594 5.70898 57.25 5.35156 58.3867 5.35156C60.2148 5.35156 61.5391 5.91406 62.3594 7.03906C63.1914 8.16406 63.6074 9.70508 63.6074 11.6621V32H57.4023V12.3125C57.4023 11.7969 57.2969 11.3223 57.0859 10.8887C56.875 10.4434 56.5117 10.2207 55.9961 10.2207C55.5156 10.2207 55.1582 10.3906 54.9238 10.7305C54.7012 11.0586 54.5605 11.4746 54.502 11.9785C54.4434 12.4707 54.4141 12.9629 54.4141 13.4551V32H48.1211ZM71.2715 32.2812C70.0527 32.2812 69.0859 32.0586 68.3711 31.6133C67.6562 31.168 67.123 30.5527 66.7715 29.7676C66.4199 28.9824 66.1855 28.0625 66.0684 27.0078C65.9629 25.9531 65.9102 24.8223 65.9102 23.6152V12.1543C65.9102 10.127 66.2676 8.48633 66.9824 7.23242C67.709 5.97852 68.9336 5.35156 70.6562 5.35156C71.9336 5.35156 72.9121 5.62695 73.5918 6.17773C74.2832 6.7168 74.8164 7.47266 75.1914 8.44531V1.0625H81.5898V32H75.1914V29.2051C74.8398 30.1543 74.3711 30.9043 73.7852 31.4551C73.2109 32.0059 72.373 32.2812 71.2715 32.2812ZM73.6797 27.3594C74.2773 27.3594 74.6758 27.1191 74.875 26.6387C75.0859 26.1582 75.1914 25.2969 75.1914 24.0547V12.9629C75.1914 12.3418 75.0977 11.7324 74.9102 11.1348C74.7344 10.5254 74.3359 10.2207 73.7148 10.2207C73.0352 10.2207 72.6074 10.5078 72.4316 11.082C72.2559 11.6562 72.168 12.2832 72.168 12.9629V24.0547C72.168 26.2578 72.6719 27.3594 73.6797 27.3594Z" fill="#F20574"/>
</svg>
